<svg width="22" height="20" fill="none" xmlns="http://www.w3.org/2000/svg"><g clip-path="url(#clip0)" fill="#AFB1B8"><path d="M21.888 5.88c-.051-1.063-.239-1.793-.507-2.426a4.863 4.863 0 00-1.262-1.774 5.44 5.44 0 00-1.93-1.153C17.493.281 16.7.11 15.54.063 14.373.012 14.003 0 11.041 0 8.078 0 7.707.012 6.543.059c-1.16.046-1.956.218-2.647.464A5.392 5.392 0 001.962 1.68 4.906 4.906 0 00.705 3.45C.436 4.087.249 4.813.198 5.876c-.056 1.07-.069 1.41-.069 4.126 0 2.715.013 3.055.064 4.122.051 1.063.239 1.793.508 2.426a4.915 4.915 0 001.261 1.774 5.44 5.44 0 001.93 1.152c.696.247 1.488.419 2.648.465 1.163.047 1.534.059 4.496.059 2.963 0 3.333-.012 4.497-.059 1.16-.046 1.956-.218 2.647-.464 1.466-.52 2.625-1.583 3.192-2.927.268-.637.456-1.364.507-2.426.051-1.067.064-1.407.064-4.122s-.004-3.055-.055-4.122zm-1.965 8.166c-.047.977-.226 1.504-.375 1.856-.367.87-1.121 1.562-2.072 1.898-.383.137-.963.301-2.024.344-1.15.047-1.496.059-4.407.059s-3.26-.012-4.407-.059c-1.066-.043-1.641-.207-2.025-.344a3.4 3.4 0 01-1.253-.746 3.097 3.097 0 01-.814-1.148c-.15-.352-.328-.883-.375-1.856-.051-1.055-.064-1.372-.064-4.04 0-2.669.013-2.99.064-4.04.047-.977.226-1.504.375-1.856a3.03 3.03 0 01.818-1.149c.354-.332.78-.586 1.253-.746.384-.137.964-.3 2.025-.344 1.15-.046 1.496-.058 4.407-.058 2.915 0 3.26.012 4.407.058 1.066.043 1.641.207 2.025.344.473.16.903.414 1.253.746.362.325.64.715.814 1.15.15.35.328.882.375 1.855.051 1.055.064 1.371.064 4.04 0 2.668-.013 2.98-.064 4.036z"/><path d="M11.04 4.864c-3.094 0-5.604 2.301-5.604 5.138 0 2.836 2.51 5.138 5.604 5.138 3.095 0 5.605-2.302 5.605-5.138 0-2.837-2.51-5.138-5.604-5.138zm0 8.47c-2.007 0-3.635-1.492-3.635-3.332 0-1.84 1.628-3.333 3.635-3.333 2.008 0 3.636 1.493 3.636 3.333s-1.628 3.333-3.636 3.333zM18.176 4.661c0 .662-.586 1.2-1.31 1.2-.722 0-1.307-.538-1.307-1.2 0-.662.585-1.2 1.308-1.2.723 0 1.309.538 1.309 1.2z"/></g><defs><clipPath id="clip0"><path fill="#fff" transform="translate(.09)" d="M0 0h21.818v20H0z"/></clipPath></defs></svg>